<svg id="svg" version="1.1" width="400" height="390.00000000000006" viewBox="0 0 400 390.00000000000006" xmlns="http://www.w3.org/2000/svg" xmlns:xlink="http://www.w3.org/1999/xlink" ><g id="svgg"><path id="path0" d="M0.000 195.000 L 0.000 390.000 200.000 390.000 L 400.000 390.000 400.000 195.000 L 400.000 0.000 200.000 0.000 L 0.000 0.000 0.000 195.000 M383.333 195.000 L 383.333 373.333 200.000 373.333 L 16.667 373.333 16.667 195.000 L 16.667 16.667 200.000 16.667 L 383.333 16.667 383.333 195.000 M272.333 84.864 C 255.976 89.209,256.179 114.152,272.600 117.626 C 286.348 120.535,296.572 110.262,293.532 96.594 C 291.532 87.606,281.957 82.308,272.333 84.864 M146.420 89.417 C 146.239 89.646,145.994 91.616,145.875 93.796 C 145.756 95.975,145.496 98.825,145.297 100.129 C 145.099 101.433,134.143 140.289,120.952 186.475 C 107.760 232.661,97.012 270.836,97.067 271.308 L 97.167 272.167 110.907 272.254 L 124.646 272.341 125.128 271.587 C 125.393 271.172,128.577 259.545,132.203 245.748 L 138.796 220.663 165.441 220.748 L 192.086 220.833 199.058 246.167 C 203.707 263.060,206.214 271.640,206.583 271.920 C 207.013 272.246,210.481 272.321,222.152 272.253 L 237.167 272.167 237.269 271.449 C 237.356 270.842,184.307 90.099,183.802 89.283 C 183.501 88.796,146.806 88.927,146.420 89.417 M166.986 122.333 C 168.803 130.300,172.963 146.723,179.649 172.326 C 182.592 183.597,185.000 193.084,185.000 193.409 C 185.000 193.968,183.937 194.000,165.333 194.000 C 154.517 194.000,145.667 193.908,145.667 193.795 C 145.667 193.682,147.531 186.595,149.809 178.045 C 157.025 150.967,161.029 134.751,163.481 122.667 C 165.083 114.771,165.002 115.081,165.316 115.671 C 165.461 115.944,166.212 118.942,166.986 122.333 M262.894 137.417 C 262.074 138.019,262.180 271.489,263.000 272.007 C 264.114 272.711,291.603 272.409,291.988 271.689 C 292.752 270.261,292.436 138.436,291.667 137.667 C 290.838 136.838,263.999 136.604,262.894 137.417 " stroke="none" fill="#fb7b04" fill-rule="evenodd"></path><path id="path1" d="M16.667 195.000 L 16.667 373.333 200.000 373.333 L 383.333 373.333 383.333 195.000 L 383.333 16.667 200.000 16.667 L 16.667 16.667 16.667 195.000 M281.167 84.504 C 291.256 86.631,296.773 97.056,293.304 107.438 C 288.437 122.005,265.494 121.963,260.987 107.378 C 256.706 93.526,267.254 81.570,281.167 84.504 M183.744 89.250 C 184.125 89.681,236.229 265.561,237.500 270.702 C 237.989 272.679,238.081 272.667,222.159 272.667 C 205.690 272.667,206.231 272.747,205.502 270.193 C 204.964 268.309,192.949 224.655,192.351 222.415 L 191.973 220.996 165.407 221.081 L 138.842 221.167 132.171 246.450 C 126.977 266.134,125.357 271.836,124.853 272.200 C 123.792 272.965,97.931 272.883,97.160 272.112 C 96.423 271.375,94.038 280.026,120.658 186.862 C 146.716 95.663,145.166 101.392,145.656 94.490 C 145.849 91.779,146.173 89.360,146.377 89.114 C 147.023 88.335,183.054 88.467,183.744 89.250 M164.190 120.243 C 161.807 132.301,155.953 156.026,148.980 181.883 C 147.341 187.960,146.000 193.097,146.000 193.299 C 146.000 193.563,151.528 193.667,165.522 193.667 C 183.958 193.667,185.035 193.634,184.875 193.083 C 183.092 186.947,168.892 131.434,166.820 122.500 C 165.970 118.833,165.235 115.793,165.186 115.743 C 165.137 115.694,164.689 117.719,164.190 120.243 M291.933 137.400 C 292.731 138.197,292.488 271.894,291.689 272.322 C 290.430 272.995,263.871 272.774,263.034 272.083 L 262.328 271.500 262.324 204.524 C 262.321 150.760,262.404 137.494,262.744 137.279 C 263.469 136.818,291.468 136.935,291.933 137.400 " stroke="none" fill="#240c04" fill-rule="evenodd"></path><path id="path2" d="M155.726 88.916 C 160.618 88.968,168.718 88.968,173.726 88.916 C 178.735 88.865,174.733 88.822,164.833 88.822 C 154.933 88.822,150.835 88.864,155.726 88.916 M155.774 193.917 C 161.241 193.968,170.091 193.968,175.441 193.916 C 180.790 193.865,176.317 193.823,165.500 193.823 C 154.683 193.823,150.307 193.865,155.774 193.917 " stroke="none" fill="#8b4404" fill-rule="evenodd"></path><path id="path3" d="" stroke="none" fill="#753504" fill-rule="evenodd"></path><path id="path4" d="M148.167 220.911 C 173.419 221.141,192.255 221.143,192.115 220.917 C 192.030 220.779,179.932 220.702,165.230 220.745 C 150.529 220.788,142.850 220.862,148.167 220.911 M104.750 272.583 C 108.188 272.637,113.813 272.637,117.250 272.583 C 120.688 272.529,117.875 272.484,111.000 272.484 C 104.125 272.484,101.313 272.529,104.750 272.583 M215.272 272.583 C 219.181 272.636,225.481 272.636,229.272 272.583 C 233.064 272.529,229.867 272.486,222.167 272.486 C 214.467 272.486,211.364 272.530,215.272 272.583 M270.750 272.583 C 274.371 272.637,280.296 272.637,283.917 272.583 C 287.537 272.529,284.575 272.485,277.333 272.485 C 270.092 272.485,267.129 272.529,270.750 272.583 " stroke="none" fill="#944404" fill-rule="evenodd"></path></g></svg>